<svg width="38" height="51" viewBox="0 0 38 51" fill="none" xmlns="http://www.w3.org/2000/svg">
<g clip-path="url(#clip0_23_2)">
<path d="M34.284 15.208C34.284 15.5547 33.608 16.1093 32.256 16.872C30.4533 17.912 29.1707 18.744 28.408 19.368C27.2987 20.304 26.2414 21.5347 25.236 23.06C24.9587 23.476 24.1267 24.88 22.74 27.272C21.7693 28.936 21.1107 29.768 20.764 29.768C20.556 29.768 20.452 29.56 20.452 29.144C20.452 29.1093 20.4694 29.0054 20.504 28.832V28.312C20.504 23.1813 21.7 18.7787 24.092 15.104C26.2067 11.8453 28.408 10.216 30.696 10.216C30.9734 10.216 31.112 10.5107 31.112 11.1C31.112 11.1694 30.8607 11.4467 30.358 11.932C29.8554 12.4174 29.604 12.868 29.604 13.284C29.604 14.636 30.228 15.312 31.476 15.312C31.684 15.312 31.9874 15.182 32.386 14.922C32.7847 14.662 33.0707 14.532 33.244 14.532H34.024C34.1974 14.8787 34.284 15.104 34.284 15.208ZM26.952 5.74402C21.8907 13.5094 19.308 21.1706 19.204 28.728C18.7534 28.6933 18.4414 27.9654 18.268 26.544L17.54 20.096C17.0894 17.08 16.3787 13.7867 15.408 10.216C14.784 7.96267 14.472 6.09069 14.472 4.60002C14.472 4.25335 14.732 4.01068 15.252 3.87202C15.46 3.97602 15.668 4.02802 15.876 4.02802C16.6387 4.02802 17.124 3.83735 17.332 3.45602C17.4707 3.21335 17.54 2.67602 17.54 1.84402C17.54 1.15068 17.9387 0.804016 18.736 0.804016C19.3947 0.804016 19.7847 1.15935 19.906 1.87002C20.0274 2.58069 20.2267 2.93602 20.504 2.93602C20.7467 2.93602 21.154 2.71069 21.726 2.26002C22.298 1.80935 22.688 1.58402 22.896 1.58402C23.7974 1.58402 24.248 1.89601 24.248 2.52002C24.248 2.76268 24.196 3.07468 24.092 3.45602C23.988 3.83735 23.936 4.09735 23.936 4.23602C23.936 4.72135 24.2827 4.96402 24.976 4.96402C25.1147 4.96402 25.3054 4.91202 25.548 4.80802C25.7907 4.70402 25.964 4.65202 26.068 4.65202C26.4494 4.65202 26.744 5.01601 26.952 5.74402ZM37.924 23.424C37.924 23.944 37.5774 24.204 36.884 24.204C36.8147 24.204 36.6674 24.1867 36.442 24.152C36.2167 24.1173 36.0347 24.1 35.896 24.1C35.4454 24.1 35.0554 24.2907 34.726 24.672C34.3967 25.0534 34.232 25.504 34.232 26.024C34.232 26.6133 34.6653 27.3587 35.532 28.26C36.3987 29.1614 36.832 29.6813 36.832 29.82C36.832 30.2707 36.3987 30.496 35.532 30.496C35.116 30.496 34.3274 30.2534 33.166 29.768C32.0047 29.2827 31.1294 29.04 30.54 29.04C29.9507 29.04 28.824 29.3693 27.16 30.028C25.496 30.6867 24.196 31.016 23.26 31.016C22.844 31.016 22.636 30.7907 22.636 30.34C23.6067 28.1907 24.6727 26.362 25.834 24.854C26.9954 23.346 28.252 22.3493 29.604 21.864C30.644 21.4827 32.2213 21.292 34.336 21.292C35.1334 21.292 35.9307 21.5607 36.728 22.098C37.5254 22.6354 37.924 23.0773 37.924 23.424ZM17.54 27.168C17.54 27.584 17.41 28.052 17.15 28.572C16.89 29.092 16.6907 29.352 16.552 29.352C16.136 29.352 15.408 27.896 14.368 24.984C11.3867 20.6507 8.0067 17.2187 4.22802 14.688C4.05468 14.584 3.96802 14.48 3.96802 14.376C3.96802 13.856 4.33202 13.596 5.06002 13.596C5.33735 13.596 5.77068 13.7 6.36002 13.908C6.94935 14.116 7.36535 14.22 7.60802 14.22C7.98935 14.22 8.40535 13.9947 8.85602 13.544C9.30669 13.0933 9.53202 12.6427 9.53202 12.192C9.53202 11.4293 9.16802 10.7534 8.44002 10.164L7.34802 9.28002C7.34802 9.10668 7.51268 8.90735 7.84202 8.68202C8.17135 8.45668 8.50935 8.34402 8.85602 8.34402C9.61869 8.34402 10.5373 8.86401 11.612 9.90402C12.7907 11.048 13.8307 12.5213 14.732 14.324C14.9054 14.6707 15.4253 16.7853 16.292 20.668C17.124 24.3774 17.54 26.544 17.54 27.168ZM14.784 29.3C14.1947 29.7507 13.6574 29.976 13.172 29.976C12.964 29.976 12.4267 29.534 11.56 28.65C10.6933 27.766 9.86136 27.324 9.06402 27.324H8.07602C7.59068 27.324 6.65469 27.7833 5.26802 28.702C3.88134 29.6207 2.98002 30.08 2.56402 30.08C1.76668 30.08 1.36802 29.6987 1.36802 28.936C1.36802 28.5547 1.67135 28.052 2.27802 27.428C2.88469 26.804 3.18802 26.1627 3.18802 25.504C3.18802 24.6027 2.98002 23.9094 2.56402 23.424C2.32135 23.1467 1.92269 22.904 1.36802 22.696C0.952017 22.5227 0.744019 22.3493 0.744019 22.176C0.744019 21.5173 1.00402 21.188 1.52402 21.188H2.04402C2.49469 21.188 3.16201 21.1533 4.04602 21.084C4.93002 21.0147 5.59735 20.98 6.04802 20.98C7.36536 20.98 8.42268 21.1707 9.22002 21.552C9.80935 21.864 10.5893 22.488 11.56 23.424C13.4667 25.2267 14.5414 27.1853 14.784 29.3ZM25.756 37.516C25.756 38.7987 25.4354 40.1247 24.794 41.494C24.1527 42.8634 23.572 43.548 23.052 43.548C22.6707 43.548 22.48 43.2014 22.48 42.508C22.48 42.3347 22.4974 42.0573 22.532 41.676V40.74C22.532 39.3187 22.0987 38.14 21.232 37.204C20.3653 36.268 19.36 35.8 18.216 35.8C17.28 35.8 16.4394 36.0947 15.694 36.684C14.9487 37.2733 14.4634 38.0273 14.238 38.946C14.0127 39.8647 13.8307 41.0173 13.692 42.404C13.6227 43.236 13.5014 43.652 13.328 43.652C12.8773 43.652 12.34 43.1147 11.716 42.04C10.988 40.7227 10.624 39.284 10.624 37.724C10.624 35.9907 11.3347 34.4654 12.756 33.148C14.316 31.7267 16.24 31.016 18.528 31.016C20.7467 31.016 22.506 31.6053 23.806 32.784C25.106 33.9627 25.756 35.54 25.756 37.516ZM21.284 40.116C21.284 40.9134 21.0067 41.7107 20.452 42.508C19.7933 43.5134 19.4467 44.1027 19.412 44.276C19.3774 45.212 19.2214 46.772 18.944 48.956C18.736 50.0654 18.3547 50.62 17.8 50.62C17.2107 50.62 16.916 49.5454 16.916 47.396C16.916 47.3267 16.9334 47.188 16.968 46.98V46.564C16.968 45.1427 16.734 43.8687 16.266 42.742C15.798 41.6153 15.564 40.9653 15.564 40.792C15.564 38.504 16.4307 37.36 18.164 37.36C18.9267 37.36 19.6373 37.6287 20.296 38.166C20.9547 38.7034 21.284 39.3533 21.284 40.116ZM20.764 8.39602C20.764 8.08401 20.6167 7.70269 20.322 7.25202C20.0274 6.80135 19.8107 6.57602 19.672 6.57602C19.4294 6.57602 19.1867 6.87068 18.944 7.46002C18.7014 8.04935 18.58 8.72535 18.58 9.48802C18.58 10.4587 18.684 11.4033 18.892 12.322C19.1 13.2407 19.2734 13.7 19.412 13.7C20.3134 11.724 20.764 9.95602 20.764 8.39602ZM28.044 16.196C27.8014 16.0573 27.5934 15.988 27.42 15.988C27.212 15.988 27.0387 16.0054 26.9 16.04C26.3453 16.664 25.6174 17.7733 24.716 19.368C26.796 17.6693 27.9054 16.612 28.044 16.196ZM31.736 25.4C31.736 24.9147 31.476 24.62 30.956 24.516C28.7027 25.4867 27.576 26.3187 27.576 27.012C27.576 27.116 27.5934 27.1853 27.628 27.22C27.732 27.1853 28.9453 26.8214 31.268 26.128C31.58 25.816 31.736 25.5734 31.736 25.4ZM13.64 20.096C12.7387 17.5653 12.132 16.0227 11.82 15.468L10.208 15.728C10.5894 16.4907 11.7333 17.9467 13.64 20.096ZM10.936 25.452C9.89601 24.8973 8.54403 24.2907 6.88002 23.632C6.46402 24.152 6.25602 24.5333 6.25602 24.776C6.25602 24.88 6.32535 25.0013 6.46402 25.14C8.47469 25.2093 9.96535 25.3133 10.936 25.452Z" fill="#23704C"/>
</g>
<defs>
<clipPath id="clip0_23_2">
<rect width="38" height="51" fill="white"/>
</clipPath>
</defs>
</svg>
